<mxfile host="app.diagrams.net" modified="2022-11-20T15:16:15.543Z" agent="5.0 (Macintosh; Intel Mac OS X 10_15_7) AppleWebKit/537.36 (KHTML, like Gecko) Chrome/107.0.0.0 Safari/537.36" etag="JsWJOKYNMsfzqz4qBAi8" version="20.5.1" type="github">
  <diagram id="ujsnzzT5qiEsHkCUB0JQ" name="Page-1">
    <mxGraphModel dx="2804" dy="2244" grid="1" gridSize="10" guides="1" tooltips="1" connect="1" arrows="1" fold="1" page="1" pageScale="1" pageWidth="850" pageHeight="1100" math="0" shadow="0">
      <root>
        <mxCell id="0" />
        <mxCell id="1" parent="0" />
        <mxCell id="9lWGS304YXizCPAKgDYG-1" value="#" style="rounded=0;whiteSpace=wrap;html=1;fontSize=14;fillColor=#ffe6cc;strokeColor=#d79b00;" vertex="1" parent="1">
          <mxGeometry x="160" y="160" width="40" height="40" as="geometry" />
        </mxCell>
        <mxCell id="9lWGS304YXizCPAKgDYG-2" value="j" style="rounded=0;whiteSpace=wrap;html=1;fontSize=14;fillColor=#ffe6cc;strokeColor=#d79b00;" vertex="1" parent="1">
          <mxGeometry x="200" y="160" width="40" height="40" as="geometry" />
        </mxCell>
        <mxCell id="9lWGS304YXizCPAKgDYG-3" value="#" style="rounded=0;whiteSpace=wrap;html=1;fontSize=14;fillColor=#ffe6cc;strokeColor=#d79b00;" vertex="1" parent="1">
          <mxGeometry x="240" y="160" width="40" height="40" as="geometry" />
        </mxCell>
        <mxCell id="9lWGS304YXizCPAKgDYG-4" value="i" style="rounded=0;whiteSpace=wrap;html=1;fontSize=14;fillColor=#ffe6cc;strokeColor=#d79b00;" vertex="1" parent="1">
          <mxGeometry x="280" y="160" width="40" height="40" as="geometry" />
        </mxCell>
        <mxCell id="9lWGS304YXizCPAKgDYG-5" value="#" style="rounded=0;whiteSpace=wrap;html=1;fontSize=14;fillColor=#ffe6cc;strokeColor=#d79b00;" vertex="1" parent="1">
          <mxGeometry x="320" y="160" width="40" height="40" as="geometry" />
        </mxCell>
        <mxCell id="9lWGS304YXizCPAKgDYG-6" value="o" style="rounded=0;whiteSpace=wrap;html=1;fontSize=14;fillColor=#ffe6cc;strokeColor=#d79b00;" vertex="1" parent="1">
          <mxGeometry x="360" y="160" width="40" height="40" as="geometry" />
        </mxCell>
        <mxCell id="9lWGS304YXizCPAKgDYG-7" value="#" style="rounded=0;whiteSpace=wrap;html=1;fontSize=14;fillColor=#ffe6cc;strokeColor=#d79b00;" vertex="1" parent="1">
          <mxGeometry x="400" y="160" width="40" height="40" as="geometry" />
        </mxCell>
        <mxCell id="9lWGS304YXizCPAKgDYG-8" value="i" style="rounded=0;whiteSpace=wrap;html=1;fontSize=14;fillColor=#ffe6cc;strokeColor=#d79b00;" vertex="1" parent="1">
          <mxGeometry x="440" y="160" width="40" height="40" as="geometry" />
        </mxCell>
        <mxCell id="9lWGS304YXizCPAKgDYG-9" value="#" style="rounded=0;whiteSpace=wrap;html=1;fontSize=14;fillColor=#ffe6cc;strokeColor=#d79b00;" vertex="1" parent="1">
          <mxGeometry x="480" y="160" width="40" height="40" as="geometry" />
        </mxCell>
        <mxCell id="9lWGS304YXizCPAKgDYG-10" value="j" style="rounded=0;whiteSpace=wrap;html=1;fontSize=14;fillColor=#ffe6cc;strokeColor=#d79b00;" vertex="1" parent="1">
          <mxGeometry x="520" y="160" width="40" height="40" as="geometry" />
        </mxCell>
        <mxCell id="9lWGS304YXizCPAKgDYG-11" value="#" style="rounded=0;whiteSpace=wrap;html=1;fontSize=14;fillColor=#ffe6cc;strokeColor=#d79b00;" vertex="1" parent="1">
          <mxGeometry x="560" y="160" width="40" height="40" as="geometry" />
        </mxCell>
        <mxCell id="9lWGS304YXizCPAKgDYG-12" value="k" style="rounded=0;whiteSpace=wrap;html=1;fontSize=14;fillColor=#ffe6cc;strokeColor=#d79b00;" vertex="1" parent="1">
          <mxGeometry x="600" y="160" width="40" height="40" as="geometry" />
        </mxCell>
        <mxCell id="9lWGS304YXizCPAKgDYG-13" value="#" style="rounded=0;whiteSpace=wrap;html=1;fontSize=14;fillColor=#ffe6cc;strokeColor=#d79b00;" vertex="1" parent="1">
          <mxGeometry x="640" y="160" width="40" height="40" as="geometry" />
        </mxCell>
        <mxCell id="9lWGS304YXizCPAKgDYG-14" value="c" style="rounded=0;whiteSpace=wrap;html=1;fontSize=14;fillColor=#ffe6cc;strokeColor=#d79b00;" vertex="1" parent="1">
          <mxGeometry x="680" y="160" width="40" height="40" as="geometry" />
        </mxCell>
        <mxCell id="9lWGS304YXizCPAKgDYG-15" value="#" style="rounded=0;whiteSpace=wrap;html=1;fontSize=14;fillColor=#ffe6cc;strokeColor=#d79b00;" vertex="1" parent="1">
          <mxGeometry x="720" y="160" width="40" height="40" as="geometry" />
        </mxCell>
        <mxCell id="9lWGS304YXizCPAKgDYG-16" value="b" style="rounded=0;whiteSpace=wrap;html=1;fontSize=14;fillColor=#ffe6cc;strokeColor=#d79b00;" vertex="1" parent="1">
          <mxGeometry x="760" y="160" width="40" height="40" as="geometry" />
        </mxCell>
        <mxCell id="9lWGS304YXizCPAKgDYG-17" value="&lt;font style=&quot;font-size: 14px;&quot;&gt;#&lt;/font&gt;" style="rounded=0;whiteSpace=wrap;html=1;fontSize=14;fillColor=#ffe6cc;strokeColor=#d79b00;" vertex="1" parent="1">
          <mxGeometry x="-480" y="160" width="40" height="40" as="geometry" />
        </mxCell>
        <mxCell id="9lWGS304YXizCPAKgDYG-18" value="j" style="rounded=0;whiteSpace=wrap;html=1;fontSize=14;fillColor=#ffe6cc;strokeColor=#d79b00;" vertex="1" parent="1">
          <mxGeometry x="-440" y="160" width="40" height="40" as="geometry" />
        </mxCell>
        <mxCell id="9lWGS304YXizCPAKgDYG-19" value="#" style="rounded=0;whiteSpace=wrap;html=1;fontSize=14;fillColor=#ffe6cc;strokeColor=#d79b00;" vertex="1" parent="1">
          <mxGeometry x="-400" y="160" width="40" height="40" as="geometry" />
        </mxCell>
        <mxCell id="9lWGS304YXizCPAKgDYG-20" value="k" style="rounded=0;whiteSpace=wrap;html=1;fontSize=14;fillColor=#ffe6cc;strokeColor=#d79b00;" vertex="1" parent="1">
          <mxGeometry x="-360" y="160" width="40" height="40" as="geometry" />
        </mxCell>
        <mxCell id="9lWGS304YXizCPAKgDYG-21" value="#" style="rounded=0;whiteSpace=wrap;html=1;fontSize=14;fillColor=#ffe6cc;strokeColor=#d79b00;" vertex="1" parent="1">
          <mxGeometry x="-320" y="160" width="40" height="40" as="geometry" />
        </mxCell>
        <mxCell id="9lWGS304YXizCPAKgDYG-22" value="c" style="rounded=0;whiteSpace=wrap;html=1;fontSize=14;fillColor=#ffe6cc;strokeColor=#d79b00;" vertex="1" parent="1">
          <mxGeometry x="-280" y="160" width="40" height="40" as="geometry" />
        </mxCell>
        <mxCell id="9lWGS304YXizCPAKgDYG-23" value="#" style="rounded=0;whiteSpace=wrap;html=1;fontSize=14;fillColor=#ffe6cc;strokeColor=#d79b00;" vertex="1" parent="1">
          <mxGeometry x="-240" y="160" width="40" height="40" as="geometry" />
        </mxCell>
        <mxCell id="9lWGS304YXizCPAKgDYG-24" value="b" style="rounded=0;whiteSpace=wrap;html=1;fontSize=14;fillColor=#ffe6cc;strokeColor=#d79b00;" vertex="1" parent="1">
          <mxGeometry x="-200" y="160" width="40" height="40" as="geometry" />
        </mxCell>
        <mxCell id="9lWGS304YXizCPAKgDYG-25" value="#" style="rounded=0;whiteSpace=wrap;html=1;fontSize=14;fillColor=#ffe6cc;strokeColor=#d79b00;" vertex="1" parent="1">
          <mxGeometry x="-160" y="160" width="40" height="40" as="geometry" />
        </mxCell>
        <mxCell id="9lWGS304YXizCPAKgDYG-26" value="a" style="rounded=0;whiteSpace=wrap;html=1;fontSize=14;fillColor=#ffe6cc;strokeColor=#d79b00;" vertex="1" parent="1">
          <mxGeometry x="-120" y="160" width="40" height="40" as="geometry" />
        </mxCell>
        <mxCell id="9lWGS304YXizCPAKgDYG-27" value="#" style="rounded=0;whiteSpace=wrap;html=1;fontSize=14;fillColor=#ffe6cc;strokeColor=#d79b00;" vertex="1" parent="1">
          <mxGeometry x="-80" y="160" width="40" height="40" as="geometry" />
        </mxCell>
        <mxCell id="9lWGS304YXizCPAKgDYG-28" value="b" style="rounded=0;whiteSpace=wrap;html=1;fontSize=14;fillColor=#ffe6cc;strokeColor=#d79b00;" vertex="1" parent="1">
          <mxGeometry x="-40" y="160" width="40" height="40" as="geometry" />
        </mxCell>
        <mxCell id="9lWGS304YXizCPAKgDYG-29" value="#" style="rounded=0;whiteSpace=wrap;html=1;fontSize=14;fillColor=#ffe6cc;strokeColor=#d79b00;" vertex="1" parent="1">
          <mxGeometry y="160" width="40" height="40" as="geometry" />
        </mxCell>
        <mxCell id="9lWGS304YXizCPAKgDYG-30" value="c" style="rounded=0;whiteSpace=wrap;html=1;fontSize=14;fillColor=#ffe6cc;strokeColor=#d79b00;" vertex="1" parent="1">
          <mxGeometry x="40" y="160" width="40" height="40" as="geometry" />
        </mxCell>
        <mxCell id="9lWGS304YXizCPAKgDYG-31" value="#" style="rounded=0;whiteSpace=wrap;html=1;fontSize=14;fillColor=#ffe6cc;strokeColor=#d79b00;" vertex="1" parent="1">
          <mxGeometry x="80" y="160" width="40" height="40" as="geometry" />
        </mxCell>
        <mxCell id="9lWGS304YXizCPAKgDYG-32" value="k" style="rounded=0;whiteSpace=wrap;html=1;fontSize=14;fillColor=#ffe6cc;strokeColor=#d79b00;" vertex="1" parent="1">
          <mxGeometry x="120" y="160" width="40" height="40" as="geometry" />
        </mxCell>
        <mxCell id="9lWGS304YXizCPAKgDYG-34" value="#" style="rounded=0;whiteSpace=wrap;html=1;fontSize=14;fillColor=#ffe6cc;strokeColor=#d79b00;" vertex="1" parent="1">
          <mxGeometry x="800" y="160" width="40" height="40" as="geometry" />
        </mxCell>
        <mxCell id="9lWGS304YXizCPAKgDYG-35" value="a" style="rounded=0;whiteSpace=wrap;html=1;fontSize=14;fillColor=#ffe6cc;strokeColor=#d79b00;" vertex="1" parent="1">
          <mxGeometry x="840" y="160" width="40" height="40" as="geometry" />
        </mxCell>
        <mxCell id="9lWGS304YXizCPAKgDYG-36" value="#" style="rounded=0;whiteSpace=wrap;html=1;fontSize=14;fillColor=#ffe6cc;strokeColor=#d79b00;" vertex="1" parent="1">
          <mxGeometry x="880" y="160" width="40" height="40" as="geometry" />
        </mxCell>
        <mxCell id="9lWGS304YXizCPAKgDYG-37" value="b" style="rounded=0;whiteSpace=wrap;html=1;fontSize=14;fillColor=#ffe6cc;strokeColor=#d79b00;" vertex="1" parent="1">
          <mxGeometry x="920" y="160" width="40" height="40" as="geometry" />
        </mxCell>
        <mxCell id="9lWGS304YXizCPAKgDYG-38" value="#" style="rounded=0;whiteSpace=wrap;html=1;fontSize=14;fillColor=#ffe6cc;strokeColor=#d79b00;" vertex="1" parent="1">
          <mxGeometry x="960" y="160" width="40" height="40" as="geometry" />
        </mxCell>
        <mxCell id="9lWGS304YXizCPAKgDYG-39" value="e" style="rounded=0;whiteSpace=wrap;html=1;fontSize=14;fillColor=#ffe6cc;strokeColor=#d79b00;" vertex="1" parent="1">
          <mxGeometry x="1000" y="160" width="40" height="40" as="geometry" />
        </mxCell>
        <mxCell id="9lWGS304YXizCPAKgDYG-40" value="#" style="rounded=0;whiteSpace=wrap;html=1;fontSize=14;fillColor=#ffe6cc;strokeColor=#d79b00;" vertex="1" parent="1">
          <mxGeometry x="1040" y="160" width="40" height="40" as="geometry" />
        </mxCell>
        <mxCell id="9lWGS304YXizCPAKgDYG-41" value="e" style="rounded=0;whiteSpace=wrap;html=1;fontSize=14;fillColor=#ffe6cc;strokeColor=#d79b00;" vertex="1" parent="1">
          <mxGeometry x="1080" y="160" width="40" height="40" as="geometry" />
        </mxCell>
        <mxCell id="9lWGS304YXizCPAKgDYG-42" value="#" style="rounded=0;whiteSpace=wrap;html=1;fontSize=14;fillColor=#ffe6cc;strokeColor=#d79b00;" vertex="1" parent="1">
          <mxGeometry x="1120" y="160" width="40" height="40" as="geometry" />
        </mxCell>
        <mxCell id="9lWGS304YXizCPAKgDYG-75" value="#" style="rounded=0;whiteSpace=wrap;html=1;fontSize=14;fillColor=#f8cecc;strokeColor=#b85450;" vertex="1" parent="1">
          <mxGeometry x="159" y="81" width="40" height="40" as="geometry" />
        </mxCell>
        <mxCell id="9lWGS304YXizCPAKgDYG-76" value="j" style="rounded=0;whiteSpace=wrap;html=1;fontSize=14;fillColor=#f8cecc;strokeColor=#b85450;" vertex="1" parent="1">
          <mxGeometry x="199" y="81" width="40" height="40" as="geometry" />
        </mxCell>
        <mxCell id="9lWGS304YXizCPAKgDYG-77" value="#" style="rounded=0;whiteSpace=wrap;html=1;fontSize=14;fillColor=#f8cecc;strokeColor=#b85450;" vertex="1" parent="1">
          <mxGeometry x="239" y="81" width="40" height="40" as="geometry" />
        </mxCell>
        <mxCell id="9lWGS304YXizCPAKgDYG-78" value="i" style="rounded=0;whiteSpace=wrap;html=1;fontSize=14;fillColor=#f8cecc;strokeColor=#b85450;" vertex="1" parent="1">
          <mxGeometry x="279" y="81" width="40" height="40" as="geometry" />
        </mxCell>
        <mxCell id="9lWGS304YXizCPAKgDYG-79" value="#" style="rounded=0;whiteSpace=wrap;html=1;fontSize=14;fillColor=#f8cecc;strokeColor=#b85450;" vertex="1" parent="1">
          <mxGeometry x="319" y="81" width="40" height="40" as="geometry" />
        </mxCell>
        <mxCell id="9lWGS304YXizCPAKgDYG-80" value="o" style="rounded=0;whiteSpace=wrap;html=1;fontSize=14;fillColor=#f8cecc;strokeColor=#b85450;" vertex="1" parent="1">
          <mxGeometry x="359" y="81" width="40" height="40" as="geometry" />
        </mxCell>
        <mxCell id="9lWGS304YXizCPAKgDYG-81" value="#" style="rounded=0;whiteSpace=wrap;html=1;fontSize=14;fillColor=#f8cecc;strokeColor=#b85450;" vertex="1" parent="1">
          <mxGeometry x="399" y="81" width="40" height="40" as="geometry" />
        </mxCell>
        <mxCell id="9lWGS304YXizCPAKgDYG-82" value="i" style="rounded=0;whiteSpace=wrap;html=1;fontSize=14;fillColor=#f8cecc;strokeColor=#b85450;" vertex="1" parent="1">
          <mxGeometry x="439" y="81" width="40" height="40" as="geometry" />
        </mxCell>
        <mxCell id="9lWGS304YXizCPAKgDYG-83" value="#" style="rounded=0;whiteSpace=wrap;html=1;fontSize=14;fillColor=#f8cecc;strokeColor=#b85450;" vertex="1" parent="1">
          <mxGeometry x="479" y="81" width="40" height="40" as="geometry" />
        </mxCell>
        <mxCell id="9lWGS304YXizCPAKgDYG-84" value="j" style="rounded=0;whiteSpace=wrap;html=1;fontSize=14;fillColor=#f8cecc;strokeColor=#b85450;" vertex="1" parent="1">
          <mxGeometry x="519" y="81" width="40" height="40" as="geometry" />
        </mxCell>
        <mxCell id="9lWGS304YXizCPAKgDYG-85" value="#" style="rounded=0;whiteSpace=wrap;html=1;fontSize=14;fillColor=#f8cecc;strokeColor=#b85450;" vertex="1" parent="1">
          <mxGeometry x="559" y="81" width="40" height="40" as="geometry" />
        </mxCell>
        <mxCell id="9lWGS304YXizCPAKgDYG-86" value="k" style="rounded=0;whiteSpace=wrap;html=1;fontSize=14;fillColor=#f8cecc;strokeColor=#b85450;" vertex="1" parent="1">
          <mxGeometry x="599" y="81" width="40" height="40" as="geometry" />
        </mxCell>
        <mxCell id="9lWGS304YXizCPAKgDYG-87" value="#" style="rounded=0;whiteSpace=wrap;html=1;fontSize=14;fillColor=#f8cecc;strokeColor=#b85450;" vertex="1" parent="1">
          <mxGeometry x="639" y="81" width="40" height="40" as="geometry" />
        </mxCell>
        <mxCell id="9lWGS304YXizCPAKgDYG-88" value="c" style="rounded=0;whiteSpace=wrap;html=1;fontSize=14;fillColor=#f8cecc;strokeColor=#b85450;" vertex="1" parent="1">
          <mxGeometry x="679" y="81" width="40" height="40" as="geometry" />
        </mxCell>
        <mxCell id="9lWGS304YXizCPAKgDYG-89" value="#" style="rounded=0;whiteSpace=wrap;html=1;fontSize=14;fillColor=#f8cecc;strokeColor=#b85450;" vertex="1" parent="1">
          <mxGeometry x="719" y="81" width="40" height="40" as="geometry" />
        </mxCell>
        <mxCell id="9lWGS304YXizCPAKgDYG-90" value="b" style="rounded=0;whiteSpace=wrap;html=1;fontSize=14;fillColor=#f8cecc;strokeColor=#b85450;" vertex="1" parent="1">
          <mxGeometry x="759" y="81" width="40" height="40" as="geometry" />
        </mxCell>
        <mxCell id="9lWGS304YXizCPAKgDYG-91" value="#" style="rounded=0;whiteSpace=wrap;html=1;fontSize=14;fillColor=#f8cecc;strokeColor=#b85450;" vertex="1" parent="1">
          <mxGeometry x="-241" y="81" width="40" height="40" as="geometry" />
        </mxCell>
        <mxCell id="9lWGS304YXizCPAKgDYG-92" value="b" style="rounded=0;whiteSpace=wrap;html=1;fontSize=14;fillColor=#f8cecc;strokeColor=#b85450;" vertex="1" parent="1">
          <mxGeometry x="-201" y="81" width="40" height="40" as="geometry" />
        </mxCell>
        <mxCell id="9lWGS304YXizCPAKgDYG-93" value="#" style="rounded=0;whiteSpace=wrap;html=1;fontSize=14;fillColor=#f8cecc;strokeColor=#b85450;" vertex="1" parent="1">
          <mxGeometry x="-161" y="81" width="40" height="40" as="geometry" />
        </mxCell>
        <mxCell id="9lWGS304YXizCPAKgDYG-94" value="a" style="rounded=0;whiteSpace=wrap;html=1;fontSize=14;fillColor=#f8cecc;strokeColor=#b85450;" vertex="1" parent="1">
          <mxGeometry x="-121" y="81" width="40" height="40" as="geometry" />
        </mxCell>
        <mxCell id="9lWGS304YXizCPAKgDYG-95" value="#" style="rounded=0;whiteSpace=wrap;html=1;fontSize=14;fillColor=#f8cecc;strokeColor=#b85450;" vertex="1" parent="1">
          <mxGeometry x="-81" y="81" width="40" height="40" as="geometry" />
        </mxCell>
        <mxCell id="9lWGS304YXizCPAKgDYG-96" value="b" style="rounded=0;whiteSpace=wrap;html=1;fontSize=14;fillColor=#f8cecc;strokeColor=#b85450;" vertex="1" parent="1">
          <mxGeometry x="-41" y="81" width="40" height="40" as="geometry" />
        </mxCell>
        <mxCell id="9lWGS304YXizCPAKgDYG-97" value="#" style="rounded=0;whiteSpace=wrap;html=1;fontSize=14;fillColor=#f8cecc;strokeColor=#b85450;" vertex="1" parent="1">
          <mxGeometry x="-1" y="81" width="40" height="40" as="geometry" />
        </mxCell>
        <mxCell id="9lWGS304YXizCPAKgDYG-98" value="c" style="rounded=0;whiteSpace=wrap;html=1;fontSize=14;fillColor=#f8cecc;strokeColor=#b85450;" vertex="1" parent="1">
          <mxGeometry x="39" y="81" width="40" height="40" as="geometry" />
        </mxCell>
        <mxCell id="9lWGS304YXizCPAKgDYG-99" value="#" style="rounded=0;whiteSpace=wrap;html=1;fontSize=14;fillColor=#f8cecc;strokeColor=#b85450;" vertex="1" parent="1">
          <mxGeometry x="79" y="81" width="40" height="40" as="geometry" />
        </mxCell>
        <mxCell id="9lWGS304YXizCPAKgDYG-100" value="k" style="rounded=0;whiteSpace=wrap;html=1;fontSize=14;fillColor=#f8cecc;strokeColor=#b85450;" vertex="1" parent="1">
          <mxGeometry x="119" y="81" width="40" height="40" as="geometry" />
        </mxCell>
        <mxCell id="9lWGS304YXizCPAKgDYG-101" value="#" style="rounded=0;whiteSpace=wrap;html=1;fontSize=14;fillColor=#f8cecc;strokeColor=#b85450;" vertex="1" parent="1">
          <mxGeometry x="799" y="81" width="40" height="40" as="geometry" />
        </mxCell>
        <mxCell id="9lWGS304YXizCPAKgDYG-102" value="a" style="rounded=0;whiteSpace=wrap;html=1;fontSize=14;fillColor=#f8cecc;strokeColor=#b85450;" vertex="1" parent="1">
          <mxGeometry x="839" y="81" width="40" height="40" as="geometry" />
        </mxCell>
        <mxCell id="9lWGS304YXizCPAKgDYG-103" value="#" style="rounded=0;whiteSpace=wrap;html=1;fontSize=14;fillColor=#f8cecc;strokeColor=#b85450;" vertex="1" parent="1">
          <mxGeometry x="879" y="81" width="40" height="40" as="geometry" />
        </mxCell>
        <mxCell id="9lWGS304YXizCPAKgDYG-104" value="b" style="rounded=0;whiteSpace=wrap;html=1;fontSize=14;fillColor=#f8cecc;strokeColor=#b85450;" vertex="1" parent="1">
          <mxGeometry x="919" y="81" width="40" height="40" as="geometry" />
        </mxCell>
        <mxCell id="9lWGS304YXizCPAKgDYG-105" value="#" style="rounded=0;whiteSpace=wrap;html=1;fontSize=14;fillColor=#f8cecc;strokeColor=#b85450;" vertex="1" parent="1">
          <mxGeometry x="959" y="81" width="40" height="40" as="geometry" />
        </mxCell>
        <mxCell id="9lWGS304YXizCPAKgDYG-106" value="mc" style="text;html=1;strokeColor=none;fillColor=none;align=center;verticalAlign=middle;whiteSpace=wrap;rounded=0;fontSize=14;" vertex="1" parent="1">
          <mxGeometry x="349" y="250" width="60" height="30" as="geometry" />
        </mxCell>
        <mxCell id="9lWGS304YXizCPAKgDYG-107" value="" style="endArrow=classic;html=1;rounded=0;fontSize=14;entryX=0.5;entryY=1;entryDx=0;entryDy=0;exitX=0.5;exitY=0;exitDx=0;exitDy=0;" edge="1" parent="1" source="9lWGS304YXizCPAKgDYG-106" target="9lWGS304YXizCPAKgDYG-6">
          <mxGeometry width="50" height="50" relative="1" as="geometry">
            <mxPoint x="280" y="440" as="sourcePoint" />
            <mxPoint x="330" y="390" as="targetPoint" />
          </mxGeometry>
        </mxCell>
        <mxCell id="9lWGS304YXizCPAKgDYG-108" value="mr" style="text;html=1;strokeColor=none;fillColor=none;align=center;verticalAlign=middle;whiteSpace=wrap;rounded=0;fontSize=14;" vertex="1" parent="1">
          <mxGeometry x="950" y="250" width="60" height="30" as="geometry" />
        </mxCell>
        <mxCell id="9lWGS304YXizCPAKgDYG-109" value="" style="endArrow=classic;html=1;rounded=0;fontSize=14;entryX=0.5;entryY=1;entryDx=0;entryDy=0;exitX=0.5;exitY=0;exitDx=0;exitDy=0;" edge="1" parent="1" source="9lWGS304YXizCPAKgDYG-108">
          <mxGeometry width="50" height="50" relative="1" as="geometry">
            <mxPoint x="881" y="440" as="sourcePoint" />
            <mxPoint x="981" y="200" as="targetPoint" />
          </mxGeometry>
        </mxCell>
        <mxCell id="9lWGS304YXizCPAKgDYG-110" value="原始字符串" style="text;html=1;strokeColor=none;fillColor=none;align=center;verticalAlign=middle;whiteSpace=wrap;rounded=0;fontSize=14;" vertex="1" parent="1">
          <mxGeometry x="-640" y="165" width="80" height="30" as="geometry" />
        </mxCell>
        <mxCell id="9lWGS304YXizCPAKgDYG-111" value="" style="endArrow=classic;html=1;rounded=0;fontSize=14;exitX=1;exitY=0.5;exitDx=0;exitDy=0;entryX=0;entryY=0.5;entryDx=0;entryDy=0;" edge="1" parent="1" source="9lWGS304YXizCPAKgDYG-110" target="9lWGS304YXizCPAKgDYG-17">
          <mxGeometry width="50" height="50" relative="1" as="geometry">
            <mxPoint x="280" y="430" as="sourcePoint" />
            <mxPoint x="330" y="380" as="targetPoint" />
          </mxGeometry>
        </mxCell>
        <mxCell id="9lWGS304YXizCPAKgDYG-112" value="以 mc 为中心的回文子串" style="text;html=1;strokeColor=none;fillColor=none;align=center;verticalAlign=middle;whiteSpace=wrap;rounded=0;fontSize=14;" vertex="1" parent="1">
          <mxGeometry x="-720" y="86" width="160" height="30" as="geometry" />
        </mxCell>
        <mxCell id="9lWGS304YXizCPAKgDYG-113" value="" style="endArrow=classic;html=1;rounded=0;fontSize=14;exitX=1;exitY=0.5;exitDx=0;exitDy=0;" edge="1" parent="1" source="9lWGS304YXizCPAKgDYG-112" target="9lWGS304YXizCPAKgDYG-91">
          <mxGeometry width="50" height="50" relative="1" as="geometry">
            <mxPoint x="280" y="351" as="sourcePoint" />
            <mxPoint x="-480" y="101" as="targetPoint" />
          </mxGeometry>
        </mxCell>
        <mxCell id="9lWGS304YXizCPAKgDYG-116" value="i" style="text;html=1;strokeColor=none;fillColor=none;align=center;verticalAlign=middle;whiteSpace=wrap;rounded=0;fontSize=14;fontColor=#FF0000;" vertex="1" parent="1">
          <mxGeometry x="830" y="250" width="60" height="30" as="geometry" />
        </mxCell>
        <mxCell id="9lWGS304YXizCPAKgDYG-117" value="" style="endArrow=classic;html=1;rounded=0;fontSize=14;entryX=0.5;entryY=1;entryDx=0;entryDy=0;exitX=0.5;exitY=0;exitDx=0;exitDy=0;fontColor=#FF0000;strokeColor=#FF0000;" edge="1" parent="1" source="9lWGS304YXizCPAKgDYG-116">
          <mxGeometry width="50" height="50" relative="1" as="geometry">
            <mxPoint x="761" y="440" as="sourcePoint" />
            <mxPoint x="861" y="200" as="targetPoint" />
          </mxGeometry>
        </mxCell>
        <mxCell id="9lWGS304YXizCPAKgDYG-119" value="" style="endArrow=classic;html=1;rounded=0;fontSize=14;entryX=0.5;entryY=1;entryDx=0;entryDy=0;exitX=0.5;exitY=0;exitDx=0;exitDy=0;fontColor=#FF0000;strokeColor=#FF0000;" edge="1" parent="1">
          <mxGeometry width="50" height="50" relative="1" as="geometry">
            <mxPoint x="-100" y="250" as="sourcePoint" />
            <mxPoint x="-98.99999999999955" y="200" as="targetPoint" />
          </mxGeometry>
        </mxCell>
        <mxCell id="9lWGS304YXizCPAKgDYG-120" value="i_mirror&lt;br&gt;= 2*mc - i" style="text;html=1;strokeColor=none;fillColor=none;align=center;verticalAlign=middle;whiteSpace=wrap;rounded=0;fontSize=14;fontColor=#FF0000;" vertex="1" parent="1">
          <mxGeometry x="-145" y="260" width="90" height="30" as="geometry" />
        </mxCell>
        <mxCell id="9lWGS304YXizCPAKgDYG-140" value="#" style="rounded=0;whiteSpace=wrap;html=1;fontSize=14;fillColor=#e1d5e7;strokeColor=#9673a6;" vertex="1" parent="1">
          <mxGeometry x="159" width="40" height="40" as="geometry" />
        </mxCell>
        <mxCell id="9lWGS304YXizCPAKgDYG-141" value="j" style="rounded=0;whiteSpace=wrap;html=1;fontSize=14;fillColor=#e1d5e7;strokeColor=#9673a6;" vertex="1" parent="1">
          <mxGeometry x="199" width="40" height="40" as="geometry" />
        </mxCell>
        <mxCell id="9lWGS304YXizCPAKgDYG-142" value="#" style="rounded=0;whiteSpace=wrap;html=1;fontSize=14;fillColor=#e1d5e7;strokeColor=#9673a6;" vertex="1" parent="1">
          <mxGeometry x="239" width="40" height="40" as="geometry" />
        </mxCell>
        <mxCell id="9lWGS304YXizCPAKgDYG-143" value="&lt;font style=&quot;font-size: 14px;&quot;&gt;#&lt;/font&gt;" style="rounded=0;whiteSpace=wrap;html=1;fontSize=14;fillColor=#e1d5e7;strokeColor=#9673a6;" vertex="1" parent="1">
          <mxGeometry x="-481" width="40" height="40" as="geometry" />
        </mxCell>
        <mxCell id="9lWGS304YXizCPAKgDYG-144" value="j" style="rounded=0;whiteSpace=wrap;html=1;fontSize=14;fillColor=#e1d5e7;strokeColor=#9673a6;" vertex="1" parent="1">
          <mxGeometry x="-441" width="40" height="40" as="geometry" />
        </mxCell>
        <mxCell id="9lWGS304YXizCPAKgDYG-145" value="#" style="rounded=0;whiteSpace=wrap;html=1;fontSize=14;fillColor=#e1d5e7;strokeColor=#9673a6;" vertex="1" parent="1">
          <mxGeometry x="-401" width="40" height="40" as="geometry" />
        </mxCell>
        <mxCell id="9lWGS304YXizCPAKgDYG-146" value="k" style="rounded=0;whiteSpace=wrap;html=1;fontSize=14;fillColor=#e1d5e7;strokeColor=#9673a6;" vertex="1" parent="1">
          <mxGeometry x="-361" width="40" height="40" as="geometry" />
        </mxCell>
        <mxCell id="9lWGS304YXizCPAKgDYG-147" value="#" style="rounded=0;whiteSpace=wrap;html=1;fontSize=14;fillColor=#e1d5e7;strokeColor=#9673a6;" vertex="1" parent="1">
          <mxGeometry x="-321" width="40" height="40" as="geometry" />
        </mxCell>
        <mxCell id="9lWGS304YXizCPAKgDYG-148" value="c" style="rounded=0;whiteSpace=wrap;html=1;fontSize=14;fillColor=#e1d5e7;strokeColor=#9673a6;" vertex="1" parent="1">
          <mxGeometry x="-281" width="40" height="40" as="geometry" />
        </mxCell>
        <mxCell id="9lWGS304YXizCPAKgDYG-149" value="#" style="rounded=0;whiteSpace=wrap;html=1;fontSize=14;fillColor=#e1d5e7;strokeColor=#9673a6;" vertex="1" parent="1">
          <mxGeometry x="-241" width="40" height="40" as="geometry" />
        </mxCell>
        <mxCell id="9lWGS304YXizCPAKgDYG-150" value="b" style="rounded=0;whiteSpace=wrap;html=1;fontSize=14;fillColor=#e1d5e7;strokeColor=#9673a6;" vertex="1" parent="1">
          <mxGeometry x="-201" width="40" height="40" as="geometry" />
        </mxCell>
        <mxCell id="9lWGS304YXizCPAKgDYG-151" value="#" style="rounded=0;whiteSpace=wrap;html=1;fontSize=14;fillColor=#e1d5e7;strokeColor=#9673a6;" vertex="1" parent="1">
          <mxGeometry x="-161" width="40" height="40" as="geometry" />
        </mxCell>
        <mxCell id="9lWGS304YXizCPAKgDYG-152" value="a" style="rounded=0;whiteSpace=wrap;html=1;fontSize=14;fillColor=#e1d5e7;strokeColor=#9673a6;" vertex="1" parent="1">
          <mxGeometry x="-121" width="40" height="40" as="geometry" />
        </mxCell>
        <mxCell id="9lWGS304YXizCPAKgDYG-153" value="#" style="rounded=0;whiteSpace=wrap;html=1;fontSize=14;fillColor=#e1d5e7;strokeColor=#9673a6;" vertex="1" parent="1">
          <mxGeometry x="-81" width="40" height="40" as="geometry" />
        </mxCell>
        <mxCell id="9lWGS304YXizCPAKgDYG-154" value="b" style="rounded=0;whiteSpace=wrap;html=1;fontSize=14;fillColor=#e1d5e7;strokeColor=#9673a6;" vertex="1" parent="1">
          <mxGeometry x="-41" width="40" height="40" as="geometry" />
        </mxCell>
        <mxCell id="9lWGS304YXizCPAKgDYG-155" value="#" style="rounded=0;whiteSpace=wrap;html=1;fontSize=14;fillColor=#e1d5e7;strokeColor=#9673a6;" vertex="1" parent="1">
          <mxGeometry x="-1" width="40" height="40" as="geometry" />
        </mxCell>
        <mxCell id="9lWGS304YXizCPAKgDYG-156" value="c" style="rounded=0;whiteSpace=wrap;html=1;fontSize=14;fillColor=#e1d5e7;strokeColor=#9673a6;" vertex="1" parent="1">
          <mxGeometry x="39" width="40" height="40" as="geometry" />
        </mxCell>
        <mxCell id="9lWGS304YXizCPAKgDYG-157" value="#" style="rounded=0;whiteSpace=wrap;html=1;fontSize=14;fillColor=#e1d5e7;strokeColor=#9673a6;" vertex="1" parent="1">
          <mxGeometry x="79" width="40" height="40" as="geometry" />
        </mxCell>
        <mxCell id="9lWGS304YXizCPAKgDYG-158" value="k" style="rounded=0;whiteSpace=wrap;html=1;fontSize=14;fillColor=#e1d5e7;strokeColor=#9673a6;" vertex="1" parent="1">
          <mxGeometry x="119" width="40" height="40" as="geometry" />
        </mxCell>
        <mxCell id="9lWGS304YXizCPAKgDYG-159" value="以 i 的镜像 i_mirror 为中心的回文子串" style="text;html=1;strokeColor=none;fillColor=none;align=center;verticalAlign=middle;whiteSpace=wrap;rounded=0;fontSize=14;" vertex="1" parent="1">
          <mxGeometry x="-800" y="7" width="240" height="30" as="geometry" />
        </mxCell>
        <mxCell id="9lWGS304YXizCPAKgDYG-160" value="" style="endArrow=classic;html=1;rounded=0;fontSize=14;exitX=1;exitY=0.5;exitDx=0;exitDy=0;entryX=0;entryY=0.5;entryDx=0;entryDy=0;" edge="1" parent="1" source="9lWGS304YXizCPAKgDYG-159">
          <mxGeometry width="50" height="50" relative="1" as="geometry">
            <mxPoint x="280" y="272" as="sourcePoint" />
            <mxPoint x="-480" y="22" as="targetPoint" />
          </mxGeometry>
        </mxCell>
        <mxCell id="9lWGS304YXizCPAKgDYG-161" value="#" style="rounded=0;whiteSpace=wrap;html=1;fontSize=14;fillColor=#b1ddf0;strokeColor=#10739e;" vertex="1" parent="1">
          <mxGeometry x="718" y="-81" width="40" height="40" as="geometry" />
        </mxCell>
        <mxCell id="9lWGS304YXizCPAKgDYG-162" value="b" style="rounded=0;whiteSpace=wrap;html=1;fontSize=14;fillColor=#b1ddf0;strokeColor=#10739e;" vertex="1" parent="1">
          <mxGeometry x="758" y="-81" width="40" height="40" as="geometry" />
        </mxCell>
        <mxCell id="9lWGS304YXizCPAKgDYG-163" value="#" style="rounded=0;whiteSpace=wrap;html=1;fontSize=14;fillColor=#b1ddf0;strokeColor=#10739e;" vertex="1" parent="1">
          <mxGeometry x="798" y="-81" width="40" height="40" as="geometry" />
        </mxCell>
        <mxCell id="9lWGS304YXizCPAKgDYG-164" value="a" style="rounded=0;whiteSpace=wrap;html=1;fontSize=14;fillColor=#b1ddf0;strokeColor=#10739e;" vertex="1" parent="1">
          <mxGeometry x="838" y="-81" width="40" height="40" as="geometry" />
        </mxCell>
        <mxCell id="9lWGS304YXizCPAKgDYG-165" value="#" style="rounded=0;whiteSpace=wrap;html=1;fontSize=14;fillColor=#b1ddf0;strokeColor=#10739e;" vertex="1" parent="1">
          <mxGeometry x="878" y="-81" width="40" height="40" as="geometry" />
        </mxCell>
        <mxCell id="9lWGS304YXizCPAKgDYG-166" value="b" style="rounded=0;whiteSpace=wrap;html=1;fontSize=14;fillColor=#b1ddf0;strokeColor=#10739e;" vertex="1" parent="1">
          <mxGeometry x="918" y="-81" width="40" height="40" as="geometry" />
        </mxCell>
        <mxCell id="9lWGS304YXizCPAKgDYG-167" value="#" style="rounded=0;whiteSpace=wrap;html=1;fontSize=14;fillColor=#b1ddf0;strokeColor=#10739e;" vertex="1" parent="1">
          <mxGeometry x="958" y="-81" width="40" height="40" as="geometry" />
        </mxCell>
        <mxCell id="9lWGS304YXizCPAKgDYG-168" value="以 i 为中心的回文子串" style="text;html=1;strokeColor=none;fillColor=none;align=center;verticalAlign=middle;whiteSpace=wrap;rounded=0;fontSize=14;" vertex="1" parent="1">
          <mxGeometry x="-700" y="-71" width="140" height="30" as="geometry" />
        </mxCell>
        <mxCell id="9lWGS304YXizCPAKgDYG-169" value="" style="endArrow=classic;html=1;rounded=0;fontSize=14;exitX=1;exitY=0.5;exitDx=0;exitDy=0;entryX=0;entryY=0.5;entryDx=0;entryDy=0;" edge="1" parent="1" source="9lWGS304YXizCPAKgDYG-168">
          <mxGeometry width="50" height="50" relative="1" as="geometry">
            <mxPoint x="1478" y="189" as="sourcePoint" />
            <mxPoint x="718" y="-61" as="targetPoint" />
          </mxGeometry>
        </mxCell>
      </root>
    </mxGraphModel>
  </diagram>
</mxfile>
